<svg width="24" height="24" viewBox="0 0 24 24" fill="none" xmlns="http://www.w3.org/2000/svg">
<path fill-rule="evenodd" clip-rule="evenodd" d="M12 3C7.02944 3 3 7.02944 3 12C3 16.9706 7.02944 21 12 21C16.9706 21 21 16.9706 21 12C20.9856 7.03542 16.9646 3.01442 12 3Z" fill="#0465B0"/>
<path d="M18.2555 11.6596C18.067 10.5871 17.1992 9.86881 16.1072 9.86556C15.5027 9.86556 14.8982 9.86231 14.2905 9.86881C14.2092 9.86881 14.1897 9.84931 14.1995 9.76806C14.271 9.18956 14.3392 8.60781 14.4042 8.02606C14.44 7.71731 14.505 7.40531 14.4595 7.09331C14.3522 6.35881 13.7347 5.77381 13.023 5.72181C12.2267 5.66331 11.541 6.12156 11.32 6.86581C11.2257 7.18106 11.138 7.49631 11.0502 7.81156C10.8292 8.61756 10.4295 9.32281 9.83798 9.91431C9.78923 9.96306 9.75348 9.98581 9.68848 9.93706C9.60398 9.87531 9.50323 9.86556 9.39923 9.86556C8.74273 9.86556 8.08298 9.86556 7.42648 9.86556C7.05598 9.86556 6.84473 10.0736 6.84473 10.4441C6.84473 12.4818 6.84473 14.5228 6.84473 16.5606C6.84473 16.9376 7.05598 17.1456 7.43623 17.1456C8.07323 17.1456 8.71023 17.1456 9.35048 17.1456C9.75023 17.1456 9.93873 16.9766 9.97448 16.5638C10.0135 16.5866 10.0427 16.6028 10.0687 16.6223C10.6017 16.9636 11.1835 17.1391 11.8172 17.1456C12.7142 17.1521 13.6112 17.1553 14.5115 17.1456C15.1322 17.1391 15.6197 16.8693 15.9577 16.3461C16.039 16.2226 16.1137 16.0991 16.1917 15.9756C16.7735 15.0428 17.3552 14.1101 17.937 13.1806C18.2262 12.7126 18.3497 12.2056 18.2555 11.6596ZM8.92798 16.0211C8.92798 16.0893 8.90848 16.1088 8.84023 16.1088C8.55748 16.1056 8.27148 16.1023 7.98873 16.1088C7.90098 16.1121 7.88473 16.0861 7.88473 16.0016C7.88798 15.1696 7.88798 14.3376 7.88798 13.5056C7.88798 12.6768 7.88798 11.8481 7.88473 11.0226C7.88473 10.9348 7.89773 10.9056 7.99523 10.9088C8.27473 10.9153 8.55423 10.9153 8.83698 10.9088C8.91173 10.9088 8.93123 10.9283 8.93123 11.0031C8.92798 12.6768 8.92798 14.3473 8.92798 16.0211ZM17.0725 12.5956C16.6305 13.3138 16.1787 14.0256 15.7335 14.7406C15.5222 15.0786 15.311 15.4133 15.103 15.7513C14.9535 15.9951 14.7422 16.1121 14.4562 16.1088C13.5982 16.1056 12.7435 16.1056 11.8855 16.1088C11.4045 16.1088 10.9657 15.9788 10.5692 15.7123C10.397 15.5986 10.228 15.4783 10.0525 15.3711C9.98423 15.3288 9.96148 15.2833 9.96148 15.2053C9.96473 14.5521 9.96473 13.8988 9.96473 13.2456C9.96473 12.5923 9.96473 11.9391 9.96473 11.2858C9.96473 11.2241 9.96798 11.1753 10.0265 11.1298C11.0925 10.3108 11.7652 9.23506 12.1 7.94156C12.165 7.68806 12.243 7.43456 12.3177 7.18431C12.4087 6.88206 12.6947 6.70656 12.9807 6.76831C13.2895 6.83656 13.4682 7.10956 13.4292 7.43456C13.3317 8.23081 13.2407 9.03031 13.1497 9.82656C13.1335 9.97931 13.114 10.1321 13.0977 10.2848C13.0555 10.6683 13.2732 10.9153 13.6632 10.9186C14.4757 10.9186 15.2882 10.9186 16.1007 10.9186C16.273 10.9186 16.4387 10.9413 16.598 11.0128C17.209 11.2793 17.43 12.0138 17.0725 12.5956Z" fill="white"/>
</svg>
